<?xml version="1.0" standalone="no"?>
<!DOCTYPE svg PUBLIC "-//W3C//DTD SVG 20010904//EN"
 "http://www.w3.org/TR/2001/REC-SVG-20010904/DTD/svg10.dtd">
<svg version="1.0" xmlns="http://www.w3.org/2000/svg"
 width="512.000000pt" height="512.000000pt" viewBox="0 0 512.000000 512.000000"
 preserveAspectRatio="xMidYMid meet">

<g transform="translate(0.000000,512.000000) scale(0.100000,-0.100000)"
fill="#000000" stroke="none">
<path d="M674 5110 c-192 -21 -376 -120 -500 -270 -61 -74 -128 -212 -151
-307 -17 -74 -18 -171 -18 -1973 0 -2142 -7 -1965 80 -2138 78 -154 183 -259
337 -337 173 -87 -3 -80 2138 -80 2141 0 1965 -7 2138 80 154 78 259 183 337
337 87 173 80 -4 80 2138 0 2141 7 1965 -80 2138 -99 196 -267 334 -482 395
l-78 22 -1865 1 c-1026 1 -1897 -2 -1936 -6z m1156 -1152 c19 -21 20 -33 20
-359 l0 -338 -26 -20 c-26 -20 -38 -21 -345 -21 -337 0 -358 3 -378 47 -7 16
-11 131 -11 344 l0 320 25 24 24 25 335 0 c332 0 335 0 356 -22z m1089 -4 c20
-26 21 -38 21 -356 l0 -329 -25 -24 -24 -25 -331 0 -331 0 -24 25 -25 24 0
329 c0 318 1 330 21 356 l20 26 339 0 339 0 20 -26z m1086 1 l25 -24 0 -320
c0 -339 -3 -360 -47 -380 -16 -7 -131 -11 -344 -11 l-320 0 -24 25 -25 24 0
336 c0 322 1 336 20 355 19 19 33 20 355 20 l336 0 24 -25z m-2178 -1037 l23
-21 0 -336 c0 -330 0 -335 -22 -358 l-21 -23 -333 0 c-312 0 -333 1 -355 19
l-24 19 0 342 0 342 24 19 c22 18 43 19 354 19 326 0 331 0 354 -22z m1088 -3
l25 -24 0 -331 0 -331 -25 -24 -24 -25 -331 0 -331 0 -24 25 -25 24 0 331 0
331 25 24 24 25 331 0 331 0 24 -25z m1086 6 l24 -19 0 -342 0 -342 -24 -19
c-22 -18 -43 -19 -354 -19 -326 0 -331 0 -354 22 l-23 21 0 336 c0 330 0 335
22 358 l21 23 333 0 c312 0 333 -1 355 -19z m-2177 -1042 l26 -20 0 -337 c0
-331 0 -336 -22 -359 l-21 -23 -334 0 -334 0 -24 25 -25 24 0 320 c0 334 3
360 44 379 13 7 143 11 342 11 310 1 322 0 348 -20z m1091 -4 l25 -24 0 -329
c0 -318 -1 -330 -21 -356 l-20 -26 -339 0 -339 0 -20 26 c-20 26 -21 38 -21
356 l0 329 25 24 24 25 331 0 331 0 24 -25z m1068 14 c44 -20 47 -41 47 -380
l0 -320 -25 -24 -24 -25 -332 0 c-328 0 -333 0 -356 22 l-23 21 0 338 0 338
26 20 c26 20 38 21 345 21 212 0 326 -4 342 -11z"/>
</g>
</svg>
