<?xml version="1.0" standalone="no"?>
<!DOCTYPE svg PUBLIC "-//W3C//DTD SVG 20010904//EN"
 "http://www.w3.org/TR/2001/REC-SVG-20010904/DTD/svg10.dtd">
<svg version="1.0" xmlns="http://www.w3.org/2000/svg"
 width="512.000000pt" height="512.000000pt" viewBox="0 0 512.000000 512.000000"
 preserveAspectRatio="xMidYMid meet">

<g transform="translate(0.000000,512.000000) scale(0.100000,-0.100000)"
fill="#000000" stroke="none">
<path d="M190 5111 c-69 -21 -130 -73 -166 -141 -18 -34 -19 -102 -19 -1985
l0 -1950 22 -41 c12 -22 39 -56 59 -74 79 -69 28 -65 881 -68 l773 -3 -85
-169 -85 -170 -173 0 c-159 0 -176 -2 -222 -24 -94 -43 -148 -129 -148 -231 1
-99 43 -171 132 -223 l46 -27 1355 0 1355 0 46 27 c89 52 131 124 132 223 0
102 -54 188 -148 231 -46 22 -63 24 -222 24 l-173 0 -85 170 -85 169 773 3
c853 3 802 -1 881 68 20 18 47 52 59 74 l22 41 0 1950 0 1950 -22 41 c-31 58
-104 119 -158 133 -51 13 -4703 15 -4745 2z m2280 -1016 l0 -855 -1150 0
-1150 0 0 826 0 826 29 29 29 29 1121 0 1121 0 0 -855z m2451 826 l29 -29 0
-826 0 -826 -1150 0 -1150 0 0 855 0 855 1121 0 1121 0 29 -29z m29 -2616 l0
-765 -2390 0 -2390 0 0 765 0 765 2390 0 2390 0 0 -765z m-2 -1079 c3 -158 -4
-178 -65 -196 -27 -8 -709 -10 -2351 -8 l-2314 3 -24 28 c-23 27 -24 35 -24
166 0 76 3 141 7 144 3 4 1078 6 2387 5 l2381 -3 3 -139z m-1673 -546 l85
-170 -800 0 -800 0 85 170 85 170 630 0 630 0 85 -170z m619 -362 c38 -35 39
-86 1 -123 l-24 -25 -1311 0 -1311 0 -24 25 c-38 37 -37 88 1 123 l25 22 1309
0 1309 0 25 -22z"/>
<path d="M370 4670 c-28 -28 -36 -69 -19 -99 27 -47 48 -51 289 -51 241 0 262
4 289 51 17 30 9 71 -19 99 -19 19 -34 20 -270 20 -236 0 -251 -1 -270 -20z"/>
<path d="M1480 4670 c-43 -43 -34 -110 20 -137 35 -18 465 -18 500 0 53 27 62
96 18 137 -21 19 -34 20 -270 20 -234 0 -249 -1 -268 -20z"/>
<path d="M625 4325 c-27 -27 -33 -79 -12 -106 27 -35 54 -39 247 -39 l192 0
29 29 c31 31 36 59 17 94 -23 44 -34 46 -246 47 -202 0 -203 0 -227 -25z"/>
<path d="M1735 4325 c-15 -15 -25 -36 -25 -54 0 -83 24 -91 260 -91 l192 0 29
29 c31 31 36 59 17 94 -23 44 -34 46 -246 47 -202 0 -203 0 -227 -25z"/>
<path d="M625 3985 c-31 -30 -33 -83 -6 -116 19 -24 22 -24 225 -27 l206 -3
30 30 c39 38 39 74 1 112 l-29 29 -202 0 c-200 0 -201 0 -225 -25z"/>
<path d="M1735 3985 c-17 -16 -25 -35 -25 -60 0 -25 8 -44 25 -60 24 -25 25
-25 225 -25 l202 0 29 29 c17 18 29 40 29 56 0 16 -12 38 -29 56 l-29 29 -202
0 c-200 0 -201 0 -225 -25z"/>
<path d="M645 3658 c-52 -28 -62 -92 -20 -133 24 -25 25 -25 227 -25 212 1
223 3 246 47 19 35 14 63 -17 94 l-29 29 -194 0 c-120 0 -201 -5 -213 -12z"/>
<path d="M1755 3658 c-52 -28 -62 -92 -20 -133 24 -25 25 -25 225 -25 l202 0
29 29 c17 18 29 40 29 56 0 16 -12 38 -29 56 l-29 29 -194 0 c-120 0 -201 -5
-213 -12z"/>
<path d="M3550 4675 c-46 -21 -87 -60 -113 -110 -22 -39 -22 -49 -22 -470 0
-421 0 -431 22 -470 58 -109 175 -153 278 -106 34 15 232 158 512 368 120 90
153 194 98 310 -22 49 -40 65 -257 226 -366 272 -348 261 -421 264 -41 2 -74
-2 -97 -12z m352 -341 c139 -103 259 -194 266 -202 20 -25 14 -56 -15 -84 -58
-54 -507 -378 -524 -378 -10 0 -25 10 -33 22 -14 19 -16 75 -16 403 0 328 2
384 16 403 8 12 24 22 34 22 11 0 133 -84 272 -186z"/>
<path d="M445 2886 c-37 -17 -80 -62 -94 -99 -14 -36 -14 -230 -1 -279 13 -45
77 -105 122 -113 18 -3 240 -5 494 -3 l461 3 36 28 c58 44 71 77 75 197 5 120
-7 175 -45 221 -50 59 -48 59 -555 59 -365 -1 -469 -4 -493 -14z m925 -241 l0
-85 -430 0 -430 0 0 85 0 85 430 0 430 0 0 -85z"/>
<path d="M1802 2883 c-18 -9 -45 -32 -60 -51 -27 -35 -27 -38 -27 -186 0 -142
1 -153 23 -184 13 -18 41 -42 63 -53 38 -19 55 -20 388 -17 l348 3 36 28 c63
48 72 75 72 222 0 139 -7 166 -57 212 -43 41 -67 43 -416 43 -292 0 -341 -3
-370 -17z m668 -238 l0 -85 -295 0 -295 0 0 85 0 85 295 0 295 0 0 -85z"/>
<path d="M2845 2875 l-25 -24 0 -550 0 -550 26 -20 c37 -29 85 -27 115 5 l24
26 0 545 0 545 -28 24 c-37 31 -81 31 -112 -1z"/>
<path d="M3248 2880 c-20 -11 -47 -34 -60 -52 -22 -31 -23 -42 -23 -184 0
-149 0 -151 27 -186 49 -64 79 -69 369 -66 l256 3 36 28 c63 48 72 75 72 222
0 139 -7 166 -57 212 -42 39 -70 43 -331 43 -230 -1 -255 -3 -289 -20z m502
-235 l0 -85 -210 0 -210 0 0 85 0 85 210 0 210 0 0 -85z"/>
<path d="M4195 2884 c-85 -44 -97 -76 -93 -250 3 -127 5 -142 26 -172 47 -65
77 -72 306 -72 120 0 216 4 233 11 42 15 92 68 103 109 15 54 12 245 -4 283
-16 39 -61 82 -99 96 -17 7 -113 11 -235 11 -168 0 -213 -3 -237 -16z m415
-239 l0 -85 -170 0 -170 0 0 85 0 85 170 0 170 0 0 -85z"/>
<path d="M445 2201 c-83 -38 -105 -89 -105 -244 0 -100 3 -119 23 -158 15 -27
38 -52 63 -66 36 -21 51 -23 214 -23 163 0 178 2 214 23 25 14 48 39 63 66 20
39 23 58 23 158 0 155 -22 206 -105 244 -33 16 -66 19 -195 19 -129 0 -162 -3
-195 -19z m325 -236 l0 -85 -130 0 -130 0 0 85 0 85 130 0 130 0 0 -85z"/>
<path d="M1215 2206 c-37 -17 -80 -62 -94 -99 -6 -16 -11 -82 -11 -148 0 -136
14 -179 72 -221 l33 -23 656 -3 655 -2 34 23 c75 50 98 125 87 285 -7 103 -35
153 -100 183 -40 18 -74 19 -672 18 -504 0 -636 -2 -660 -13z m1255 -241 l0
-85 -595 0 -595 0 0 85 0 85 595 0 595 0 0 -85z"/>
<path d="M3252 2199 c-28 -14 -51 -36 -68 -65 -25 -42 -25 -48 -22 -183 3
-152 9 -168 72 -215 25 -19 44 -21 214 -24 182 -3 188 -3 222 20 19 13 45 39
58 58 22 33 23 42 20 180 -3 134 -5 147 -27 179 -43 59 -84 71 -266 71 -143 0
-165 -2 -203 -21z m328 -234 l0 -85 -125 0 -125 0 0 85 0 85 125 0 125 0 0
-85z"/>
<path d="M4024 2201 c-23 -10 -52 -34 -65 -52 -22 -32 -24 -45 -27 -179 -3
-138 -2 -147 20 -180 13 -19 39 -45 57 -57 34 -23 38 -23 340 -23 298 0 307 1
345 23 25 14 48 39 63 66 20 39 23 58 23 160 -1 158 -24 208 -113 246 -30 12
-87 15 -319 15 -254 0 -287 -2 -324 -19z m586 -236 l0 -85 -255 0 -255 0 0 85
0 85 255 0 255 0 0 -85z"/>
</g>
</svg>
